# xmcd
#
# Track frame offsets:
# 150
# 5309
# 25043
# 44208
# 64086
# 80467
# 100555
# 124708
# 142020
# 163938
# 182271
#
# Disc length: 2717 seconds
#
#
# Revision: 4
# Processed by: cddbd v1.5.1PL2 Copyright (c) Steve Scherf et al.
# Submitted via: FreeRIP 2.944 
#
DISCID=880a9b0b
DTITLE=Ligabue - Nome E Cognome
DYEAR=2005
DGENRE=Rock
TTITLE0=Intro
TTITLE1=Il Giorno Dei Giorni
TTITLE2=Happy Hour
TTITLE3=L'Amore Conta
TTITLE4=Cosa Vuoi Che Sia
TTITLE5=Le Donne Lo Sanno
TTITLE6=Lettera A G
TTITLE7=Vivere A Orecchio
TTITLE8=Giorno Per Giorno
TTITLE9=È Più Forte Di Me
TTITLE10=Sono Quì Per L'Amore
EXTD=YEAR: 2005
EXTT0=
EXTT1=
EXTT2=
EXTT3=
EXTT4=
EXTT5=
EXTT6=
EXTT7=
EXTT8=
EXTT9=
EXTT10=
PLAYORDER=
